# xmcd
#
# Track frame offsets:
#	150
#	15057
#	31306
#	51225
#	68633
#	84372
#	106785
#	123338
#	143609
#	158551
#	175647
#	193029
#
# Disc length: 2925 seconds
#
# Revision: 1
# Processed by: cddbd v1.4PL0 Copyright (c) Steve Scherf et al.
# Submitted via: audiograbber 1.80
#
DISCID=830b6b0c
DTITLE=Faith Hill - Faith
DYEAR=1900
DGENRE=
TTITLE0=This Kiss
TTITLE1=You Give Me Love
TTITLE2=Let Me Let Go
TTITLE3=Love Ain't Like That
TTITLE4=Better Days
TTITLE5=My Wild Frontier
TTITLE6=The Secret Of Life
TTITLE7=Just To Hear You Say That You Love Me
TTITLE8=Me
TTITLE9=I Love You
TTITLE10=The Hard Way
TTITLE11=Somebody Stand By Me
EXTD=
EXTT0=
EXTT1=
EXTT2=
EXTT3=
EXTT4=
EXTT5=
EXTT6=
EXTT7=
EXTT8=
EXTT9=
EXTT10=
EXTT11=
PLAYORDER=
